<svg height="340" width="575" xmlns="http://www.w3.org/2000/svg">
<rect width="100%" height="100%" x="0" y="0" style="fill:white;stroke:white;stroke-width:0"/>
<g style="fill:white;stroke:black;stroke-width:1">
<rect width="460" height="225" x="60" y="60"/>
<polygon points="10,95 10,85 30,85 40,95 60,95 40,95 30,105 10,105 10,95"/>
<text x="65" y="85" dominant-baseline="hanging" text-anchor="start" font-size="20" style="fill:black;stroke:black;stroke-width:0">block_in</text>
<polygon points="10,145 10,135 30,135 40,145 60,145 40,145 30,155 10,155 10,145"/>
<text x="65" y="135" dominant-baseline="hanging" text-anchor="start" font-size="20" style="fill:black;stroke:black;stroke-width:0">scramble_state_in</text>
<polygon points="520,95 540,95 540,85 560,85 570,95 560,105 540,105 540,95 520,95"/>
<text x="515" y="85" dominant-baseline="hanging" text-anchor="end" font-size="20" style="fill:black;stroke:black;stroke-width:0">payload_out</text>
<polygon points="520,145 540,145 540,135 560,135 570,145 560,155 540,155 540,145 520,145"/>
<text x="515" y="135" dominant-baseline="hanging" text-anchor="end" font-size="20" style="fill:black;stroke:black;stroke-width:0">sync_bit_out</text>
<polygon points="520,195 540,195 540,185 560,185 570,195 560,205 540,205 540,195 520,195"/>
<text x="515" y="185" dominant-baseline="hanging" text-anchor="end" font-size="20" style="fill:black;stroke:black;stroke-width:0">scramble_state_out</text>
<polygon points="520,245 540,245 540,235 560,235 570,245 560,255 540,255 540,245 520,245"/>
<text x="515" y="235" dominant-baseline="hanging" text-anchor="end" font-size="20" style="fill:black;stroke:black;stroke-width:0">header_err</text>
<text x="290" y="300" dominant-baseline="hanging" text-anchor="middle" font-size="30" style="fill:black;stroke:black;stroke-width:0">adn_endec_decoder_256b257b</text>
</g>
</svg>
