<svg height="390" width="395" xmlns="http://www.w3.org/2000/svg">
<rect width="100%" height="100%" x="0" y="0" style="fill:white;stroke:white;stroke-width:0"/>
<g style="fill:white;stroke:black;stroke-width:1">
<rect width="280" height="275" x="60" y="60"/>
<polygon points="10,95 10,85 30,85 40,95 60,95 40,95 30,105 10,105 10,95"/>
<text x="65" y="85" dominant-baseline="hanging" text-anchor="start" font-size="20" style="fill:black;stroke:black;stroke-width:0">code_in</text>
<polygon points="10,145 10,135 30,135 40,145 60,145 40,145 30,155 10,155 10,145"/>
<text x="65" y="135" dominant-baseline="hanging" text-anchor="start" font-size="20" style="fill:black;stroke:black;stroke-width:0">rd_in</text>
<polygon points="340,95 360,95 360,85 380,85 390,95 380,105 360,105 360,95 340,95"/>
<text x="335" y="85" dominant-baseline="hanging" text-anchor="end" font-size="20" style="fill:black;stroke:black;stroke-width:0">data_out</text>
<polygon points="340,145 360,145 360,135 380,135 390,145 380,155 360,155 360,145 340,145"/>
<text x="335" y="135" dominant-baseline="hanging" text-anchor="end" font-size="20" style="fill:black;stroke:black;stroke-width:0">is_k</text>
<polygon points="340,195 360,195 360,185 380,185 390,195 380,205 360,205 360,195 340,195"/>
<text x="335" y="185" dominant-baseline="hanging" text-anchor="end" font-size="20" style="fill:black;stroke:black;stroke-width:0">rd_out</text>
<polygon points="340,245 360,245 360,235 380,235 390,245 380,255 360,255 360,245 340,245"/>
<text x="335" y="235" dominant-baseline="hanging" text-anchor="end" font-size="20" style="fill:black;stroke:black;stroke-width:0">code_err</text>
<polygon points="340,295 360,295 360,285 380,285 390,295 380,305 360,305 360,295 340,295"/>
<text x="335" y="285" dominant-baseline="hanging" text-anchor="end" font-size="20" style="fill:black;stroke:black;stroke-width:0">disparity_err</text>
<text x="200" y="350" dominant-baseline="hanging" text-anchor="middle" font-size="30" style="fill:black;stroke:black;stroke-width:0">adn_endec_decoder_8b10b</text>
</g>
</svg>
